<svg width="869" height="76" fill="none" xmlns="http://www.w3.org/2000/svg"><g clip-path="url(#a)"><path d="M866.1 22.5h-24.8c13.8-6.9 14.9-11.3 14.4-13.7-1.2-4-5.7-7-10-5.4-5.6 2.1-7.1 10.4-8.6 16.4-2-6.1-3.8-13.8-8.2-17.7-1.3-1.1-3.1-2.3-5.8-2-4 .4-9.8 5.4-7.5 11 2.3 5.4 9.7 8.8 14.6 11.5h-22.3a2.9 2.9 0 0 0-2.9 2.9v11.3c0 1.6 1.3 2.9 2.9 2.9h.3V76H866V39.6h.1c1.6 0 2.9-1.3 2.9-2.9V25.4c0-1.6-1.3-2.9-2.9-2.9ZM847.4 5.9c2.1-.3 5 1.3 5.3 3.2.4 2.8-3.4 5.3-5.1 6.4-2.5 1.7-4.9 2.6-7.3 4.1.9-3.7 2.5-13 7.1-13.7Zm-22.9 10c-2.2-1.5-6.5-4.4-6.4-7.8.1-3.6 5.7-6.6 8.8-3.9 3.9 3.4 5.7 11.1 7.1 16.6-3.2-1.5-6.3-2.8-9.5-4.9Zm6 57.1h-19.4V39.6h19.4V73Zm0-36.5H808v-11h22.5v11Zm10.2 0V73h-7.2V25.6h7.2v10.9ZM863 73h-19.4V39.6H863V73Zm2.9-36.5h-22.3v-11h22.3v11Z" fill="#81B3D2"/></g><path d="M469.9 52.7H404.1c-2.3 0-4.1 1.9-4.1 4.3v3.5c0 2.4 1.9 4.3 4.1 4.3h.9v1.1c0 5.5 4.3 10.1 9.6 10.1h44.6c5.3 0 9.6-4.5 9.6-10.1v-1.1h.9c2.3 0 4.1-1.9 4.1-4.3V57a4 4 0 0 0-3.9-4.3ZM466 65.9c0 3.9-3 7-6.7 7h-44.7c-3.7 0-6.7-3.2-6.7-7v-1.1H466v1.1Zm5.1-5.4c0 .7-.6 1.3-1.2 1.3H404c-.7 0-1.2-.6-1.2-1.3V57c0-.7.6-1.3 1.2-1.3h65.8c.7 0 1.2.6 1.2 1.3.1 0 .1 3.5.1 3.5ZM415.6 44.4l5.4 4.1 5.3-4.1 5.3 4.1 5.3-4.1 5.4 4.1 5.3-4.1 5.3 4.1 5.4-4.1 5.3 4.1 6.2-4.7-1.7-2.5-4.5 3.4-5.3-4.1-5.4 4.1-5.3-4.1-5.3 4.1-5.4-4.1-5.3 4.1-5.3-4.1-5.3 4.1-5.4-4.1-5.3 4.1-4.5-3.4-1.7 2.5 6.2 4.7 5.3-4.1ZM408 37.5h60.8c0-.6.1-1.2.1-1.9v-1.2C468.2 18.7 454.2 6 437 6c-17.3 0-31.3 12.7-32 28.5v1.2c0 .6 0 1.3.1 1.9h2.9v-.1ZM437 9c15.6 0 28.4 11.3 29 25.5h-58C408.6 20.4 421.4 9 437 9Z" fill="#81B3D2"/><path d="M437 23.3c1.05 0 1.9-.9 1.9-2s-.85-2-1.9-2c-1.05 0-1.9.9-1.9 2s.85 2 1.9 2ZM429.2 18.2c1.05 0 1.9-.9 1.9-2s-.85-2-1.9-2c-1.05 0-1.9.9-1.9 2s.85 2 1.9 2ZM444.7 18.2c1.05 0 1.9-.9 1.9-2s-.85-2-1.9-2c-1.05 0-1.9.9-1.9 2s.85 2 1.9 2ZM29.7 69h16V45.2h-16V69Zm2.9-20.9h10.1v18H32.6v-18Z" fill="#81B3D2"/><path d="m72.8 43.3 2.1-2.1-9.9-9.9V4H51.1v13.6L37.5 4 .2 41.2l2.1 2.1 7.8-7.8v37.6h-4V76H70v-2.9h-5.1V35.5l7.9 7.8ZM62 73.1H13V32.5L37.5 8.1 62 32.5v40.6Zm0-44.7-7.9-7.9V6.9H62v21.5Z" fill="#81B3D2"/><path d="M29.9 31.1c0 4.3 3.5 7.7 7.7 7.7 4.3 0 7.8-3.5 7.8-7.7 0-4.3-3.5-7.7-7.8-7.7a7.7 7.7 0 0 0-7.7 7.7Zm7.8-5a5 5 0 0 1 5 4.9c0 2.7-2.2 4.9-5 4.9a5 5 0 0 1-5-4.9c0-2.7 2.2-4.9 5-4.9ZM20.1 45.2h-3v3.9h3v-3.9ZM26 45.2h-3v3.9h3v-3.9ZM20.1 51.2h-3v3.9h3v-3.9ZM26 51.2h-3v3.9h3v-3.9ZM52 45.2h-3v3.9h3v-3.9ZM57.9 45.2h-3v3.9h3v-3.9ZM52 51.2h-3v3.9h3v-3.9ZM57.9 51.2h-3v3.9h3v-3.9Z" fill="#81B3D2"/><defs><clipPath id="a"><path fill="#fff" transform="translate(805)" d="M0 0h64v76H0z"/></clipPath></defs></svg>